<?xml version="1.0" encoding="UTF-8" standalone="no"?>
<!-- Generator: Adobe Illustrator 16.0.0, SVG Export Plug-In . SVG Version: 6.00 Build 0)  -->

<svg
   xmlns:dc="http://purl.org/dc/elements/1.1/"
   xmlns:cc="http://creativecommons.org/ns#"
   xmlns:rdf="http://www.w3.org/1999/02/22-rdf-syntax-ns#"
   xmlns:svg="http://www.w3.org/2000/svg"
   xmlns="http://www.w3.org/2000/svg"
   xmlns:sodipodi="http://sodipodi.sourceforge.net/DTD/sodipodi-0.dtd"
   xmlns:inkscape="http://www.inkscape.org/namespaces/inkscape"
   version="1.1"
   x="0px"
   y="0px"
   width="1000"
   height="1166.549"
   viewBox="2070 0 1000 1166.549"
   enable-background="new 2070 0 1015 1182"
   xml:space="preserve"
   id="svg2138"
   sodipodi:docname="ABS-CBN (2014).svg"
   inkscape:version="0.92.2 (5c3e80d, 2017-08-06)"><metadata
     id="metadata2144"><rdf:RDF><cc:Work
         rdf:about=""><dc:format>image/svg+xml</dc:format><dc:type
           rdf:resource="http://purl.org/dc/dcmitype/StillImage" /><dc:title></dc:title></cc:Work></rdf:RDF></metadata><defs
     id="defs2142" /><sodipodi:namedview
     pagecolor="#ffffff"
     bordercolor="#666666"
     borderopacity="1"
     objecttolerance="10"
     gridtolerance="10"
     guidetolerance="10"
     inkscape:pageopacity="0"
     inkscape:pageshadow="2"
     inkscape:window-width="1024"
     inkscape:window-height="706"
     id="namedview2140"
     showgrid="false"
     inkscape:zoom="0.39932318"
     inkscape:cx="390.67215"
     inkscape:cy="568.30702"
     inkscape:window-x="-8"
     inkscape:window-y="-8"
     inkscape:window-maximized="1"
     inkscape:current-layer="svg2138" /><g
     id="g2727"><g
       transform="matrix(1.0397799,0,0,1.0397799,-107.56737,-36.570964)"
       id="Layer_1" /><rect
       style="fill:#ffffff;stroke-width:1.0397799"
       id="rect2111"
       height="997.26642"
       width="993.61261"
       y="0.00017556302"
       x="2076.3613" /><path
       style="fill:#0066b2;stroke-width:1.0397799"
       inkscape:connector-curvature="0"
       id="path2113"
       d="m 2766.4071,498.6391 c 0,-107.10357 -86.5096,-193.93662 -193.2108,-193.93662 -106.722,0 -193.2504,86.83305 -193.2504,193.93662 0,85.07168 54.5708,157.29375 130.4945,183.46813 v -92.29399 c -28.7895,-19.99496 -47.6615,-53.36982 -47.6615,-91.17414 0,-61.20248 49.4353,-110.83326 110.3987,-110.83326 60.9643,0 110.4371,49.63078 110.4371,110.83326 0,38.15681 -19.2422,71.76873 -48.4652,91.72627 v 91.99868 c 76.2907,-25.91755 131.2576,-98.35694 131.2576,-183.72495" /><path
       style="fill:#00a551;stroke-width:1.0397799"
       inkscape:connector-curvature="0"
       id="path2115"
       d="m 2904.4369,498.6391 c 0,-183.61681 -148.3215,-332.47794 -331.2593,-332.47794 -182.9379,0 -331.2386,148.86217 -331.2386,332.47794 0,162.07673 115.5539,297.03705 268.5014,326.45554 V 739.88468 C 2403.6248,711.96139 2324.7502,614.58704 2324.7502,498.6391 c 0,-137.71469 111.2274,-249.35377 248.4274,-249.35377 137.2249,0 248.472,111.64012 248.472,249.35377 0,116.24428 -79.2894,213.81306 -186.4824,241.44313 v 85.15174 c 153.2999,-29.10448 269.2697,-164.2218 269.2697,-326.59487" /><path
       style="fill:#ec1c24;stroke-width:1.0397799"
       inkscape:connector-curvature="0"
       id="path2117"
       d="m 3042.4458,498.6391 c 0,-260.13941 -210.0968,-470.999496 -469.2682,-470.999496 -259.1714,0 -469.2683,210.860086 -469.2683,470.999496 0,238.7657 177.035,436.03066 406.5321,466.78839 V 881.2989 c -183.5856,-30.10683 -323.7188,-189.90332 -323.7188,-382.6598 0,-214.22793 173.0152,-387.87533 386.456,-387.87533 213.4419,0 386.4623,173.6474 386.4623,387.87533 0,193.03098 -140.5533,353.024 -324.4904,382.77834 v 84.12755 C 2865.022,935.10335 3042.4458,737.68034 3042.4458,498.6391" /><rect
       style="fill:#000000;stroke-width:1.0397799"
       id="rect2119"
       height="498.70547"
       width="69.013313"
       y="498.62039"
       x="2538.6829" /><rect
       style="fill:#000000;stroke-width:1.0397799"
       id="rect2121"
       height="44.82803"
       width="44.947605"
       y="1084.0736"
       x="2550.7039" /><path
       style="fill:#000000;stroke-width:1.0397799"
       inkscape:connector-curvature="0"
       id="path2123"
       d="m 2819.7936,1143.8392 c 0,10.9218 0.4534,10.8428 20.3891,10.8428 20.938,0 40.9309,-3.1682 40.9309,-19.3638 0,-21.9623 -34.1609,-22.2378 -49.5476,-22.2378 h -11.7724 z m 0,-44.4548 h 11.7724 c 13.4599,0 41.3468,-0.9462 41.3468,-19.3066 0,-15.447 -16.3172,-19.4429 -35.5209,-19.4429 -16.6282,0 -17.5983,1.201 -17.5983,11.1974 z m -44.75,-49.0017 H 2842.7 c 38.2992,0 77.9512,1.6938 77.9512,28.0221 0,22.4738 -27.9222,24.3433 -37.3686,25.3664 v 0.1779 c 22.0776,-0.1779 42.6205,9.2488 42.6205,30.3449 0,30.8367 -48.4079,30.582 -85.1267,30.582 h -65.7328 z" /><path
       style="fill:#000000;stroke-width:1.0397799"
       inkscape:connector-curvature="0"
       id="path2125"
       d="m 2607.6536,1107.6101 c 0,31.2693 19.8026,58.9389 92.2575,58.9389 28.046,0 41.9593,-1.438 65.9231,-5.49 v -29.1253 c -5.882,9.6034 -22.3521,24.4203 -57.2866,24.4203 -40.5567,0 -55.4328,-26.999 -55.4328,-48.7439 0,-21.7667 14.8761,-48.7261 55.4328,-48.7261 34.9345,0 51.4046,14.8376 57.2866,24.4036 v -29.1263 c -23.9648,-4.0541 -37.8781,-5.4724 -65.9231,-5.4724 -72.4549,0 -92.2575,27.6488 -92.2575,58.9212" /><polygon
       transform="matrix(1.0397799,0,0,1.0397799,-107.56737,-36.570964)"
       style="fill:#000000"
       id="polygon2127"
       points="3055.747,1045.332 3039.663,1045.332 3039.663,1119.144 2957.37,1045.369 2924.214,1045.332 2924.214,1155.462 2940.508,1155.462 2940.543,1084.811 3017.46,1155.462 3056,1155.462 3056,1045.369 3055.729,1045.369 " /><path
       style="fill:#000000;stroke-width:1.0397799"
       inkscape:connector-curvature="0"
       id="path2129"
       d="m 2114.8915,1120.2434 h 51.8164 l -25.4102,-47.5065 z m 22.0007,-69.8607 h 38.9636 l 63.7427,114.4933 h -49.7722 l -16.9993,-30.8368 h -66.8153 l -16.7259,30.8368 H 2070 Z" /><path
       style="fill:#000000;stroke-width:1.0397799"
       inkscape:connector-curvature="0"
       id="path2131"
       d="m 2291.1362,1143.8392 c 0,10.9218 0.4523,10.8428 20.3891,10.8428 20.938,0 40.9309,-3.1682 40.9309,-19.3638 0,-21.9623 -34.162,-22.2378 -49.5476,-22.2378 h -11.7724 z m 0,-44.4548 h 11.7724 c 13.4537,0 41.3635,-0.9462 41.3635,-19.3066 0,-15.447 -16.3349,-19.4429 -35.5459,-19.4429 -16.6479,0 -17.591,1.201 -17.591,11.1974 v 27.5521 z m -44.75,-49.0017 h 67.6564 c 38.292,0 77.9315,1.6938 77.9315,28.0221 0,22.4738 -27.9056,24.3433 -37.3499,25.3664 v 0.1779 c 22.0776,-0.1779 42.6205,9.2488 42.6205,30.3449 0,30.8367 -48.4277,30.582 -85.133,30.582 h -65.7266 v -114.4933 z" /><path
       style="fill:#000000;stroke-width:1.0397799"
       inkscape:connector-curvature="0"
       id="path2133"
       d="m 2528.2674,1083.3261 c -10.3884,-16.727 -33.5693,-24.4421 -55.2965,-24.4421 -22.3543,0 -31.0146,6.0983 -31.6468,16.2143 -1.1801,21.7272 100.2067,14.3292 97.2943,57.5414 -1.7718,26.3719 -38.058,33.8895 -78.1218,33.8895 -21.7095,0 -51.1322,-3.4645 -56.4403,-4.052 v -31.8807 c 12.1426,11.7464 38.135,25.3665 59.1937,25.9363 20.9172,0.5511 31.7018,-2.5599 31.7018,-16.806 0,-23.6144 -95.5214,-12.0822 -92.5903,-58.6633 1.1781,-18.5954 24.7353,-33.8292 72.4175,-32.255 20.1718,0.6103 37.5839,2.4414 53.4863,5.5493 v 28.9683 z" /></g></svg>